PathFileType	4	(X/Y/Z)	24_coords_data.trc
DataRate	CameraRate	NumFrames	NumMarkers	Units	OrigDataRate	OrigDataStartFrame	OrigNumFrames
30.0	30.0	6	21	m	30.0	41	80
Frame#	Time	THUMB_TIP	THUMB_IP	THUMB_MCP	THUMB_CMC	INDEX_TIP	INDEX_DIP	INDEX_PIP	INDEX_MCP	MIDDLE_TIP	MIDDLE_DIP	MIDDLE_PIP	MIDDLE_MCP	RING_TIP	RING_DIP	RING_PIP	RING_MCP	PINKY_TIP	PINKY_DIP	PINKY_PIP	PINKY_MCP	WRIST
X1	Y1	Z1	X2	Y2	Z2	X3	Y3	Z3	X4	Y4	Z4	X5	Y5	Z5	X6	Y6	Z6	X7	Y7	Z7	X8	Y8	Z8	X9	Y9	Z9	X10	Y10	Z10	X11	Y11	Z11	X12	Y12	Z12	X13	Y13	Z13	X14	Y14	Z14	X15	Y15	Z15	X16	Y16	Z16	X17	Y17	Z17	X18	Y18	Z18	X19	Y19	Z19	X20	Y20	Z20	X21	Y21	Z21
40	1.3333333333333333	0.004082119941711425	-0.025956899642944335	0.8691740112304688	-0.010567099571228027	-0.021132499694824218	0.8939580078125	-0.025806800842285156	-0.017530799865722656	0.9226190185546875	-0.041087200164794925	0.002346649885177612	0.9465770263671875	0.0086910400390625	0.004189410209655762	0.824593994140625	-0.00967846965789795	-0.00048773100972175604	0.8389970092773438	-0.029170499801635743	-0.004764150142669678	0.8529439697265625	-0.055436901092529293	-0.00872506046295166	0.8877100219726562	0.00806052017211914	0.03127070045471191	0.8232839965820312	-0.012510299682617188	0.025877099990844726	0.8347529907226563	-0.037668399810791016	0.0206466007232666	0.8500499877929687	-0.06300339889526367	0.014191399574279786	0.8875330200195313	0.0027757699489593503	0.04825199890136719	0.8305380249023437	-0.016870000839233398	0.04458969879150391	0.84293701171875	-0.03986059951782227	0.040150299072265624	0.8585230102539062	-0.06246609878540039	0.0334281005859375	0.8939439697265625	-0.012006799697875976	0.061793701171875	0.8474180297851562	-0.026040800094604494	0.05946099853515625	0.8626640014648438	-0.03921080017089844	0.05612879943847656	0.8770020141601562	-0.056485801696777346	0.0502781982421875	0.9020469970703126	-0.07243489837646484	0.0163523006439209	0.97193701171875
41	1.3666666666666667	0.002186830043792724	-0.03091760063171387	0.8692479858398438	-0.01187660026550293	-0.02440920066833496	0.8940250244140625	-0.02682029914855957	-0.019530000686645507	0.9226480102539063	-0.04164519882202149	0.001076859951019287	0.9468410034179687	0.006658860206604004	0.00197923994064331	0.8229130249023437	-0.010993399620056153	-0.002272569894790649	0.8381790161132813	-0.029845800399780274	-0.005998189926147461	0.8530369873046875	-0.05559820175170899	-0.00951377010345459	0.8875050048828125	0.007564670085906983	0.029707700729370116	0.8222739868164063	-0.012728799819946289	0.02450819969177246	0.8343660278320313	-0.03747779846191406	0.019446699142456055	0.85022802734375	-0.06305939865112305	0.013440899848937989	0.8877379760742188	0.0023873798847198484	0.04679629898071289	0.82935302734375	-0.017135299682617188	0.04316899871826172	0.8424340209960938	-0.039558101654052734	0.03896780014038086	0.8587559814453125	-0.06213750076293945	0.0326260986328125	0.89414501953125	-0.012267000198364257	0.06071229934692383	0.847114013671875	-0.025888999938964843	0.05834749984741211	0.8626740112304687	-0.03872919845581055	0.055084999084472654	0.8772109985351563	-0.056002700805664066	0.04945199966430664	0.9022069702148438	-0.07247489929199219	0.015638999938964844	0.972447021484375
42	1.4	0.0009405559897422791	-0.0343932991027832	0.8695670166015625	-0.012906000137329102	-0.0270856990814209	0.8942150268554687	-0.027582799911499024	-0.021472600936889647	0.9226259765625	-0.04221609878540039	-0.000560118019580841	0.94689697265625	0.005813230037689209	0.000328004986047744	0.8220880126953125	-0.011724599838256836	-0.0036440200805664064	0.8379000244140625	-0.030380699157714845	-0.0071316900253295895	0.85293798828125	-0.05590999984741211	-0.010380499839782715	0.8876420288085938	0.007128300189971924	0.028309099197387694	0.8217969970703125	-0.01304769992828369	0.023129499435424805	0.8341900024414063	-0.0377302017211914	0.01826219940185547	0.850291015625	-0.0631234016418457	0.012586299896240234	0.8876740112304687	0.00209840989112854	0.045538101196289066	0.82943701171875	-0.01731760025024414	0.04206480026245117	0.842427001953125	-0.039654998779296874	0.03790029907226562	0.8587830200195312	-0.062198898315429685	0.03177610015869141	0.8942329711914062	-0.012370499610900879	0.05975859832763672	0.847219970703125	-0.02602350044250488	0.057412498474121096	0.8627319946289063	-0.03897909927368164	0.05418069839477539	0.87727197265625	-0.05580839920043945	0.04855509948730469	0.9023319702148438	-0.07301540374755859	0.014819700241088868	0.97235400390625
43	1.4333333333333333	0.00023146900534629802	-0.0363927001953125	0.8696909790039062	-0.01354419994354248	-0.02862809944152832	0.8943189697265626	-0.027813800811767576	-0.022688499450683595	0.9225700073242188	-0.042536399841308595	-0.001527979969978332	0.9470889892578125	0.005628369808197022	-0.0008854830265045161	0.8223209838867187	-0.011900600433349609	-0.004818689823150635	0.838155029296875	-0.030399499893188478	-0.008338159561157226	0.853030029296875	-0.056138599395751956	-0.01139430046081543	0.88772900390625	0.006613850116729736	0.027049299240112304	0.8213070068359375	-0.013422599792480469	0.02190690040588379	0.8339199829101562	-0.03794810104370117	0.017165300369262695	0.8505859985351563	-0.06326359939575195	0.011540499687194825	0.8877570190429688	0.001626230001449585	0.04424610137939453	0.8287410278320313	-0.017541200637817382	0.04076419830322266	0.8422109985351562	-0.03978770065307617	0.03672050094604492	0.8587890014648437	-0.062144798278808595	0.030761899948120116	0.894177001953125	-0.01271909999847412	0.058470500946044925	0.8466950073242188	-0.026051300048828125	0.05615800094604492	0.8623939819335937	-0.03880179977416992	0.0529734992980957	0.8773590087890625	-0.055953800201416014	0.047467498779296874	0.9024749755859375	-0.07313710021972657	0.013994099617004395	0.9727890014648437
44	1.4666666666666666	-0.0020046200752258303	-0.04168330001831055	0.8702659912109375	-0.01497819995880127	-0.032398200988769534	0.8945250244140625	-0.02903179931640625	-0.024903999328613282	0.9231320190429687	-0.043157699584960935	-0.0029819700717926023	0.947375	0.004533520221710205	-0.003415440082550049	0.8212429809570313	-0.01256779956817627	-0.00690595006942749	0.8378090209960938	-0.03066320037841797	-0.009947230339050293	0.8532589721679688	-0.056207901000976564	-0.012404600143432616	0.8879450073242188	0.005404119968414307	0.02496540069580078	0.8196170043945312	-0.014132399559020997	0.020011199951171874	0.8330369873046874	-0.0380364990234375	0.015565699577331542	0.8503350219726562	-0.06304140090942383	0.010465499877929687	0.8880449829101562	5.1677498966455e-05	0.0422234001159668	0.8260070190429688	-0.018532400131225587	0.038916000366210936	0.8409329833984375	-0.03991880035400391	0.03502209854125977	0.858708984375	-0.06177890014648438	0.029531099319458007	0.8943079833984375	-0.013792499542236328	0.05744039916992188	0.8455360107421875	-0.02674959945678711	0.055068599700927735	0.8618980102539062	-0.038940200805664064	0.051855300903320314	0.8768729858398437	-0.055759700775146484	0.04630619812011719	0.9025289916992187	-0.07345140075683594	0.013378700256347657	0.9727659912109375
45	1.5	-0.0037063500881195067	-0.04573550033569336	0.8707410278320312	-0.016213499069213867	-0.03549879837036133	0.894927978515625	-0.02989579963684082	-0.026975799560546875	0.923333984375	-0.043727100372314455	-0.00448160982131958	0.9475369873046875	0.003635689973831176	-0.005262290000915527	0.8204349975585937	-0.013171299934387207	-0.008523960113525391	0.8373920288085938	-0.030959699630737306	-0.011265000343322755	0.8533930053710937	-0.056232898712158204	-0.01329319953918457	0.8879149780273438	0.0046301398277282715	0.023302700042724608	0.8184310302734376	-0.01451039981842041	0.01852680015563965	0.8323610229492188	-0.03807260131835938	0.014228400230407714	0.8501740112304688	-0.0629369010925293	0.009631799697875977	0.8881859741210938	-0.0008291800022125241	0.04074800109863281	0.8249420166015625	-0.018928600311279298	0.03755590057373047	0.8402310180664062	-0.03984140014648437	0.03376219940185547	0.858614013671875	-0.061424999237060546	0.028527000427246093	0.8943629760742188	-0.014691100120544434	0.056804000854492186	0.8449349975585938	-0.027218599319458008	0.054336601257324216	0.8615239868164063	-0.03897129821777344	0.05100590133666992	0.8768660278320313	-0.05531980133056641	0.045372600555419924	0.9025419921875	-0.07357990264892578	0.012374099731445312	0.972875
